<?xml version="1.0" encoding="iso-8859-1"?>
<!-- Generator: Adobe Illustrator 19.2.1, SVG Export Plug-In . SVG Version: 6.00 Build 0)  -->
<svg xmlns="http://www.w3.org/2000/svg" xmlns:xlink="http://www.w3.org/1999/xlink" version="1.1" id="Layer_1" x="0px" y="0px" viewBox="0 0 40 40" style="enable-background:new 0 0 40 40;" xml:space="preserve" width="40px" height="40px">
<g>
	<path style="fill:#F5CE85;" d="M20,38.5C9.799,38.5,1.5,30.201,1.5,20S9.799,1.5,20,1.5S38.5,9.799,38.5,20S30.201,38.5,20,38.5z"/>
	<g>
		<path style="fill:#967A44;" d="M20,2c9.925,0,18,8.075,18,18s-8.075,18-18,18S2,29.925,2,20S10.075,2,20,2 M20,1    C9.507,1,1,9.507,1,20s8.507,19,19,19s19-8.507,19-19S30.493,1,20,1L20,1z"/>
	</g>
</g>
<polygon style="fill:#FFFFFF;" points="34.5,20 24.5,20 29.5,15 "/>
<polygon style="fill:#FFFFFF;" points="5.5,20 15.5,20 10.5,25 "/>
<path style="fill:#FFFFFF;" d="M20,11.75c2.275,0,4.331,0.931,5.824,2.426l1.945-1.945C25.779,10.24,23.038,9,20,9  C13.925,9,9,13.925,9,20c0,0.467,0.039,0.924,0.095,1.375h2.779C11.799,20.927,11.75,20.469,11.75,20  C11.75,15.451,15.451,11.75,20,11.75z"/>
<path style="fill:#FFFFFF;" d="M30.905,18.625h-2.779c0.076,0.448,0.124,0.906,0.124,1.375c0,4.549-3.701,8.25-8.25,8.25  c-2.275,0-4.331-0.931-5.824-2.426l-1.945,1.945C14.221,29.76,16.962,31,20,31c6.075,0,11-4.925,11-11  C31,19.533,30.961,19.076,30.905,18.625z"/>
</svg>
